<?xml version="1.0" encoding="UTF-8"?>
<svg version="1.1" xmlns="http://www.w3.org/2000/svg" width="100" height="100">
<path d="M0 0 C8.61018464 3.01598537 16.95424582 6.59976651 25.32202148 10.2260437 C27.23873842 11.05263811 29.1590602 11.87091994 31.08276367 12.68112183 C33.87376086 13.85695202 36.65302039 15.05722256 39.4309082 16.26364136 C40.29433838 16.62215179 41.15776855 16.98066223 42.04736328 17.35003662 C44.22540505 18.31374862 46.22499062 19.22488311 48.1809082 20.58395386 C49.2277832 23.35397339 49.2277832 23.35397339 49.1809082 25.58395386 C41.99903537 29.31789217 34.68541608 32.55378315 27.1809082 35.58395386 C27.15376086 37.81305257 27.13444566 40.04224753 27.1184082 42.27145386 C27.10680664 43.51282104 27.09520508 44.75418823 27.08325195 46.03317261 C27.16736574 49.09154996 27.55694532 51.61227453 28.1809082 54.58395386 C28.51428555 57.47479617 28.7290296 60.36883347 28.9309082 63.27145386 C28.99922852 64.04295776 29.06754883 64.81446167 29.13793945 65.60934448 C29.2902832 67.84567261 29.2902832 67.84567261 29.1809082 71.58395386 C26.1809082 73.58395386 26.1809082 73.58395386 23.0559082 73.27145386 C20.1809082 72.58395386 20.1809082 72.58395386 19.1809082 71.58395386 C19.27108816 69.39345364 19.42757028 67.20548785 19.6184082 65.02145386 C19.72024414 63.82391479 19.82208008 62.62637573 19.92700195 61.39254761 C20.05268555 60.0022937 20.05268555 60.0022937 20.1809082 58.58395386 C19.10711914 59.14985229 18.03333008 59.71575073 16.92700195 60.29879761 C15.49108148 61.0402206 14.05486783 61.78107599 12.6184082 62.52145386 C11.91393555 62.89463745 11.20946289 63.26782104 10.48364258 63.65231323 C5.61857629 66.14089553 0.83247969 68.5461081 -4.75097656 67.07492065 C-6.83060418 66.29850947 -8.81428812 65.41142763 -10.8190918 64.45895386 C-11.49198242 64.16246948 -12.16487305 63.86598511 -12.8581543 63.56051636 C-24.47774414 58.26664917 -24.47774414 58.26664917 -26.8190918 53.58395386 C-26.90217817 52.20847229 -26.92645195 50.8290959 -26.91674805 49.45114136 C-26.91352539 48.64547729 -26.91030273 47.83981323 -26.90698242 47.00973511 C-26.89860352 46.16797729 -26.89022461 45.32621948 -26.8815918 44.45895386 C-26.87708008 43.60946167 -26.87256836 42.75996948 -26.86791992 41.88473511 C-26.85612054 39.78444477 -26.83818486 37.68419055 -26.8190918 35.58395386 C-28.0153418 35.21270386 -29.2115918 34.84145386 -30.4440918 34.45895386 C-34.78044052 32.99041403 -39.06758534 31.40672863 -43.3190918 29.70895386 C-44.5256543 29.23715698 -45.7322168 28.76536011 -46.9753418 28.27926636 C-49.8190918 26.58395386 -49.8190918 26.58395386 -50.49682617 23.97799683 C-50.60317383 23.18796265 -50.70952148 22.39792847 -50.8190918 21.58395386 C-40.99140063 16.4528417 -30.89621778 12.09152796 -20.6940918 7.77145386 C-18.29839975 6.75294772 -15.90315481 5.73339815 -13.50808716 4.71342468 C-12.0305845 4.08463837 -10.55263571 3.45689907 -9.07418823 2.83033752 C-1.56261377 -0.35738682 -1.56261377 -0.35738682 0 0 Z " fill="#1D1D1D" transform="translate(50.819091796875,13.416046142578125)"/>
<path d="M0 0 C18.70731707 5.70731707 18.70731707 5.70731707 23 10 C23.2127557 12.7540043 23.37690512 15.49176293 23.5 18.25 C23.71397807 22.94959239 24.04691415 27.38619804 25 32 C25.33181602 34.89101985 25.54812071 37.78486973 25.75 40.6875 C25.85248047 41.84475586 25.85248047 41.84475586 25.95703125 43.02539062 C26.109375 45.26171875 26.109375 45.26171875 26 49 C23 51 23 51 19.875 50.6875 C17 50 17 50 16 49 C16.59281437 30.40718563 16.59281437 30.40718563 19 28 C19.23701239 25.14122091 19.42219182 22.30116703 19.5625 19.4375 C19.60568359 18.63119141 19.64886719 17.82488281 19.69335938 16.99414062 C19.79975262 14.99631195 19.90040888 12.9981793 20 11 C18.783125 10.62875 17.56625 10.2575 16.3125 9.875 C9.97615532 7.77975504 4.01375958 4.87210465 -2 2 C-1.34 1.34 -0.68 0.68 0 0 Z " fill="#E6A617" transform="translate(54,36)"/>
<path d="M0 0 C7.68616839 2.34493273 14.7366185 5.55945087 22 9 C22 14.94 22 20.88 22 27 C21.34 27 20.68 27 20 27 C20 21.72 20 16.44 20 11 C18.783125 10.62875 17.56625 10.2575 16.3125 9.875 C9.97615532 7.77975504 4.01375958 4.87210465 -2 2 C-1.34 1.34 -0.68 0.68 0 0 Z " fill="#EAB117" transform="translate(54,36)"/>
<path d="M0 0 C0.33 0 0.66 0 1 0 C1.06058594 1.16917969 1.12117188 2.33835938 1.18359375 3.54296875 C1.26804034 5.09115614 1.35268625 6.63933268 1.4375 8.1875 C1.47681641 8.95642578 1.51613281 9.72535156 1.55664062 10.51757812 C1.77587463 14.44692604 2.1851151 18.14287815 3 22 C3.11678799 24.67678073 3.0454506 27.31841457 3 30 C2.34 29.01 1.68 28.02 1 27 C-0.98 27.33 -2.96 27.66 -5 28 C-4.93993922 26.54052295 -4.8511311 25.08220728 -4.75 23.625 C-4.68039063 22.40683594 -4.68039063 22.40683594 -4.609375 21.1640625 C-4.30773437 20.09285156 -4.30773437 20.09285156 -4 19 C-2.68 18.34 -1.36 17.68 0 17 C0 11.39 0 5.78 0 0 Z " fill="#CF851D" transform="translate(76,46)"/>
<path d="M0 0 C1.65 0 3.3 0 5 0 C5 5.94 5 11.88 5 18 C4.34 18 3.68 18 3 18 C3 12.72 3 7.44 3 2 C2.01 1.67 1.02 1.34 0 1 C0 0.67 0 0.34 0 0 Z " fill="#F8C414" transform="translate(71,45)"/>
<path d="M0 0 C1.32 0 2.64 0 4 0 C4 2.31 4 4.62 4 7 C2.68 6.67 1.36 6.34 0 6 C0 4.02 0 2.04 0 0 Z " fill="#F6C115" transform="translate(73,75)"/>
<path d="M0 0 C1.32 0 2.64 0 4 0 C4 1.65 4 3.3 4 5 C2.35 4.67 0.7 4.34 -1 4 C-0.67 2.68 -0.34 1.36 0 0 Z " fill="#F0B716" transform="translate(73,64)"/>
<path d="M0 0 C0.66 0.33 1.32 0.66 2 1 C1.67 1.99 1.34 2.98 1 4 C0.34 4 -0.32 4 -1 4 C-1 3.01 -1 2.02 -1 1 C-1.598125 1.33 -2.19625 1.66 -2.8125 2 C-5 3 -5 3 -8 3 C-8 2.34 -8 1.68 -8 1 C-5.26094655 -0.36952673 -3.02912668 -0.12621361 0 0 Z " fill="#131313" transform="translate(53,32)"/>
<path d="M0 0 C0.33 0 0.66 0 1 0 C1.1875 3.375 1.1875 3.375 1 7 C-2 9 -2 9 -5 9 C-5 8.34 -5 7.68 -5 7 C-4.01 6.67 -3.02 6.34 -2 6 C-0.77479736 2.99152582 -0.77479736 2.99152582 0 0 Z " fill="#D9931B" transform="translate(79,78)"/>
<path d="M0 0 C1.32 0 2.64 0 4 0 C4 0.99 4 1.98 4 3 C4.66 3.33 5.32 3.66 6 4 C3 5 3 5 0 4 C-0.33 3.01 -0.66 2.02 -1 1 C-0.67 0.67 -0.34 0.34 0 0 Z " fill="#292722" transform="translate(48,33)"/>
</svg>
